<svg width="194" height="194" viewBox="0 0 194 194" fill="none" xmlns="http://www.w3.org/2000/svg">
<path d="M97.0002 41.1641C98.1704 41.1641 99.2951 41.6018 100.156 42.3867L100.323 42.5479C101.12 43.3503 117.137 59.7285 122.607 82.29L124.065 82.9277C133.122 77.8946 143.263 75.2656 153.836 75.2656H165.203C167.79 75.2657 169.887 77.3627 169.887 79.9492V91.3164C169.887 102.911 166.662 113.764 161.064 123.03L161.562 124.48C176.733 130.303 188.048 141.164 191.018 144.2L191.767 144.984C193.356 146.715 193.41 149.345 191.926 151.138L191.778 151.309C191.35 151.778 185.725 157.862 176.832 163.822C167.929 169.79 155.842 175.57 142.469 175.57C134.042 175.57 126.161 173.277 119.272 170.08L118.058 170.378C111.723 178.629 102.503 184.439 99.9475 185.958L99.2883 186.341C98.5775 186.738 97.7888 186.938 97.0002 186.938C96.3101 186.937 95.6202 186.786 94.9827 186.481L94.7131 186.341L94.053 185.958C91.4966 184.438 82.2773 178.629 75.9426 170.378L74.7288 170.08C67.8383 173.277 59.9582 175.57 51.5315 175.57C38.158 175.57 26.0715 169.79 17.1682 163.822C9.38633 158.606 4.10733 153.296 2.62329 151.736L2.22388 151.309C0.639921 149.572 0.594604 146.942 2.08521 145.155L2.23364 144.985V144.984C2.79984 144.367 15.1025 131.135 32.4397 124.481L32.9368 123.03C27.3385 113.764 24.1135 102.911 24.1135 91.3164V79.9492C24.1135 77.3626 26.2105 75.2656 28.7971 75.2656H40.1643C50.7376 75.2656 60.8789 77.8948 69.9358 82.9277L71.3928 82.2891C76.5209 61.1383 90.9185 45.4223 93.3547 42.8789L93.676 42.5479C94.5557 41.662 95.7523 41.1641 97.0002 41.1641ZM96.3225 155.417C93.5767 157.943 89.5872 161.288 84.6516 164.527L84.4348 166.009C88.3376 170.638 93.374 174.346 96.4465 176.389H97.554C100.625 174.347 105.662 170.638 109.565 166.008L109.348 164.527C104.412 161.288 100.423 157.943 97.677 155.417H96.3225ZM38.8743 132.152C27.6908 135.675 18.2884 142.931 13.2268 147.412L13.2258 148.909C20.0392 154.959 34.9079 166.203 51.5315 166.203C62.7989 166.203 73.6637 161.068 82.6252 154.538L82.093 152.731C65.3906 151.779 50.4496 144.134 39.9172 132.437L38.8743 132.152ZM155.126 132.152L154.083 132.437C143.558 144.126 128.632 151.768 111.944 152.729L111.413 154.536C119.094 160.12 130.247 166.203 142.469 166.203C159.166 166.203 173.992 154.969 180.785 148.916L180.783 147.42C175.726 142.941 166.318 135.678 155.126 132.152ZM34.4807 84.6328L33.4807 85.6328V91.3164C33.4807 119.85 56.5122 143.098 84.9612 143.46L85.7854 141.876C78.7166 132.06 69.5823 115.738 69.5823 97C69.5823 96.1101 69.6039 95.2247 69.6438 94.3438L69.2034 93.4688C60.6102 87.6841 50.6346 84.6328 40.1643 84.6328H34.4807ZM153.836 84.6328C143.366 84.6328 133.39 87.6841 124.797 93.4688L124.357 94.3438C124.397 95.2247 124.418 96.1101 124.418 97C124.418 115.738 115.284 132.06 108.215 141.876L109.039 143.46C137.488 143.098 160.52 119.85 160.52 91.3164V85.6328L159.52 84.6328H153.836ZM97.7903 53.8984L96.2258 53.8994C90.0748 61.6317 78.9495 78.1937 78.9495 97C78.9495 115.879 90.0542 132.388 96.2102 140.102L97.7747 140.101C103.926 132.368 115.051 115.806 115.051 97C115.051 78.121 103.946 61.6121 97.7903 53.8984Z" fill="#D9A5B3" stroke="#B47687" stroke-width="2" stroke-linejoin="bevel"/>
<path d="M97 6.0625C93.8611 6.0625 91.3164 8.60723 91.3164 11.7461V23.1133C91.3164 26.2521 93.8611 28.7969 97 28.7969C100.139 28.7969 102.684 26.2521 102.684 23.1133V11.7461C102.684 8.60723 100.139 6.0625 97 6.0625Z" fill="#D9A5B3" stroke="#C88A9B" stroke-width="2"/>
<path d="M59.5691 40.1641L51.5313 32.1264C49.3117 29.9068 45.7132 29.9068 43.4936 32.1264C41.2739 34.346 41.2739 37.9445 43.4936 40.1641L51.5313 48.2019C53.7506 50.4211 57.349 50.4219 59.5691 48.2019C61.7887 45.9822 61.7887 42.3838 59.5691 40.1641Z" fill="#D9A5B3" stroke="#C88A9B" stroke-width="2"/>
<path d="M150.507 32.1264C148.287 29.9068 144.688 29.9068 142.468 32.1264L134.431 40.1641C132.212 42.3838 132.212 45.9822 134.431 48.2019C136.65 50.4215 140.249 50.4215 142.469 48.2019L150.507 40.1641C152.726 37.9445 152.726 34.346 150.507 32.1264Z" fill="#D9A5B3" stroke="#C88A9B" stroke-width="2"/>
</svg>
