<svg width="41" height="40" viewBox="0 0 41 40" fill="none" xmlns="http://www.w3.org/2000/svg">
<g clip-path="url(#clip0_2066_399)">
<path d="M40.1914 29.7543C40.0695 29.6216 37.5064 26.8634 33.8854 25.4737C35.0585 23.532 35.7343 21.2576 35.7343 18.8281V16.4844C35.7343 15.8372 35.2097 15.3125 34.5625 15.3125H32.2187C30.004 15.3125 27.8785 15.8634 25.98 16.9184C24.8383 12.2092 21.5016 8.79883 21.3316 8.62758C21.1116 8.40586 20.8122 8.28125 20.5 8.28125C20.1877 8.28125 19.8883 8.40586 19.6683 8.6275C19.4983 8.79875 16.1615 12.2092 15.0198 16.9183C13.1215 15.8634 10.996 15.3125 8.78122 15.3125H6.43747C5.79028 15.3125 5.2656 15.8372 5.2656 16.4844V18.8281C5.2656 21.2576 5.94146 23.532 7.11458 25.4737C3.49364 26.8634 0.930519 29.6216 0.808644 29.7544C0.398097 30.2015 0.397004 30.8881 0.806066 31.3366C0.994816 31.5436 5.49474 36.4062 11.125 36.4062C12.8999 36.4062 14.5545 35.9231 15.9947 35.255C17.5147 37.2348 19.8161 38.5384 19.9277 38.6008C20.1055 38.7003 20.3028 38.75 20.5 38.75C20.6973 38.75 20.8946 38.7002 21.0724 38.6008C21.184 38.5384 23.4854 37.2348 25.0054 35.255C26.4454 35.9231 28.1 36.4062 29.875 36.4062C35.5052 36.4062 40.0051 31.5436 40.194 31.3366C40.603 30.888 40.6019 30.2014 40.1914 29.7543ZM20.5017 11.2416C21.7643 12.8237 24.0156 16.1805 24.0156 20C24.0156 23.8044 21.7601 27.1721 20.4983 28.7584C19.2357 27.1763 16.9843 23.8195 16.9843 20C16.9843 16.1956 19.2398 12.8279 20.5017 11.2416ZM11.125 34.0625C7.77935 34.0625 4.76411 31.7921 3.3638 30.5487C4.39911 29.632 6.31193 28.158 8.57716 27.4445C10.7836 29.8951 13.9143 31.4973 17.4147 31.6969C15.5852 33.0298 13.3874 34.0625 11.125 34.0625ZM7.60935 18.8281V17.6562H8.78122C10.8992 17.6562 12.9159 18.2733 14.6536 19.443C14.6452 19.6275 14.6406 19.8131 14.6406 20C14.6406 23.9271 16.5529 27.3355 18.0204 29.3733C12.2672 29.3002 7.60935 24.5983 7.60935 18.8281ZM20.5 36.1972C19.8728 35.7802 18.8532 35.0282 18.0669 34.0956C19.0961 33.4202 19.9275 32.7231 20.4999 32.1966C21.0722 32.7231 21.9037 33.4202 22.9329 34.0956C22.1466 35.0284 21.1268 35.7804 20.5 36.1972ZM26.3593 20C26.3593 19.8131 26.3547 19.6275 26.3464 19.443C28.084 18.2733 30.1008 17.6562 32.2187 17.6562H33.3906V18.8281C33.3906 24.5983 28.7327 29.3002 22.9796 29.3733C24.4471 27.3355 26.3593 23.9271 26.3593 20ZM29.875 34.0625C27.4195 34.0625 25.1633 32.8381 23.5929 31.6964C27.0902 31.495 30.2179 29.8934 32.4229 27.4445C34.6898 28.1586 36.6036 29.6342 37.6381 30.5503C36.2423 31.7941 33.2358 34.0625 29.875 34.0625Z" fill="#D9A5B3"/>
<path d="M20.5 1.25C19.8528 1.25 19.3281 1.77469 19.3281 2.42188V4.76562C19.3281 5.41281 19.8528 5.9375 20.5 5.9375C21.1472 5.9375 21.6719 5.41281 21.6719 4.76562V2.42188C21.6719 1.77469 21.1472 1.25 20.5 1.25Z" fill="#D9A5B3"/>
<path d="M12.7823 8.28127L11.125 6.624C10.6674 6.16635 9.92541 6.16635 9.46775 6.624C9.0101 7.08166 9.0101 7.82361 9.46775 8.28127L11.125 9.93853C11.5826 10.3961 12.3246 10.3963 12.7823 9.93853C13.2399 9.48088 13.2399 8.73893 12.7823 8.28127Z" fill="#D9A5B3"/>
<path d="M31.5322 6.624C31.0746 6.16635 30.3326 6.16635 29.8749 6.624L28.2177 8.28127C27.7601 8.73893 27.7601 9.48088 28.2177 9.93853C28.6753 10.3962 29.4173 10.3962 29.875 9.93853L31.5322 8.28127C31.9898 7.82361 31.9898 7.08166 31.5322 6.624Z" fill="#D9A5B3"/>
</g>
<defs>
<clipPath id="clip0_2066_399">
<rect width="40" height="40" fill="white" transform="translate(0.5)"/>
</clipPath>
</defs>
</svg>
