<svg width="435" height="332" viewBox="0 0 435 332" fill="none" xmlns="http://www.w3.org/2000/svg">
<g clip-path="url(#clip0_1_265)">
<path d="M253.444 123.509C253.225 123.243 248.611 117.727 242.094 114.947C244.205 111.064 245.422 106.515 245.422 101.656V96.9688C245.422 95.6744 244.477 94.625 243.312 94.625H239.094C235.107 94.625 231.281 95.7267 227.864 97.8367C225.809 88.4184 219.803 81.5977 219.497 81.2552C219.101 80.8117 218.562 80.5625 218 80.5625C217.438 80.5625 216.899 80.8117 216.503 81.255C216.197 81.5975 210.191 88.4184 208.136 97.8366C204.719 95.7267 200.893 94.625 196.906 94.625H192.687C191.523 94.625 190.578 95.6744 190.578 96.9688V101.656C190.578 106.515 191.795 111.064 193.906 114.947C187.389 117.727 182.775 123.243 182.556 123.509C181.817 124.403 181.815 125.776 182.551 126.673C182.891 127.087 190.991 136.812 201.125 136.812C204.32 136.812 207.298 135.846 209.891 134.51C212.626 138.47 216.769 141.077 216.97 141.202C217.29 141.401 217.645 141.5 218 141.5C218.355 141.5 218.71 141.4 219.03 141.202C219.231 141.077 223.374 138.47 226.11 134.51C228.702 135.846 231.68 136.812 234.875 136.812C245.009 136.812 253.109 127.087 253.449 126.673C254.185 125.776 254.183 124.403 253.444 123.509ZM218.003 86.4833C220.276 89.6473 224.328 96.3611 224.328 104C224.328 111.609 220.268 118.344 217.997 121.517C215.724 118.353 211.672 111.639 211.672 104C211.672 96.3913 215.732 89.6558 218.003 86.4833ZM201.125 132.125C195.103 132.125 189.675 127.584 187.155 125.097C189.018 123.264 192.461 120.316 196.539 118.889C200.511 123.79 206.146 126.995 212.446 127.394C209.153 130.06 205.197 132.125 201.125 132.125ZM194.797 101.656V99.3125H196.906C200.719 99.3125 204.349 100.547 207.476 102.886C207.461 103.255 207.453 103.626 207.453 104C207.453 111.854 210.895 118.671 213.537 122.747C203.181 122.6 194.797 113.197 194.797 101.656ZM218 136.394C216.871 135.56 215.036 134.056 213.62 132.191C215.473 130.84 216.97 129.446 218 128.393C219.03 129.446 220.527 130.84 222.379 132.191C220.964 134.057 219.128 135.561 218 136.394ZM228.547 104C228.547 103.626 228.539 103.255 228.523 102.886C231.651 100.547 235.281 99.3125 239.094 99.3125H241.203V101.656C241.203 113.197 232.819 122.6 222.463 122.747C225.105 118.671 228.547 111.854 228.547 104ZM234.875 132.125C230.455 132.125 226.394 129.676 223.567 127.393C229.862 126.99 235.492 123.787 239.461 118.889C243.542 120.317 246.987 123.268 248.849 125.101C246.336 127.588 240.924 132.125 234.875 132.125Z" fill="#FAFAFA"/>
<path d="M218 66.5C216.835 66.5 215.891 67.5494 215.891 68.8438V73.5312C215.891 74.8256 216.835 75.875 218 75.875C219.165 75.875 220.109 74.8256 220.109 73.5312V68.8438C220.109 67.5494 219.165 66.5 218 66.5Z" fill="#FAFAFA"/>
<path d="M204.109 80.5616L201.126 77.247C200.302 76.3317 198.967 76.3317 198.143 77.247C197.319 78.1623 197.319 79.6462 198.143 80.5616L201.126 83.8761C201.949 84.7912 203.285 84.7916 204.109 83.8761C204.933 82.9608 204.933 81.4769 204.109 80.5616Z" fill="#FAFAFA"/>
<path d="M237.859 77.247C237.035 76.3317 235.699 76.3317 234.876 77.247L231.893 80.5616C231.069 81.4769 231.069 82.9608 231.893 83.8761C232.716 84.7914 234.052 84.7914 234.876 83.8761L237.859 80.5616C238.682 79.6462 238.682 78.1623 237.859 77.247Z" fill="#FAFAFA"/>
</g>
<path d="M430.651 233.979C429.329 232.533 401.519 202.478 362.232 187.336C374.959 166.178 382.292 141.395 382.292 114.923V89.3846C382.292 82.3326 376.6 76.6154 369.578 76.6154H344.148C320.118 76.6154 297.056 82.6178 276.458 94.1135C264.071 42.8007 227.867 5.63974 226.023 3.77373C223.636 1.35779 220.388 0 217 0C213.612 0 210.363 1.35779 207.975 3.77288C206.131 5.63889 169.928 42.8008 157.54 94.1126C136.943 82.6178 113.881 76.6154 89.8512 76.6154H64.4215C57.3996 76.6154 51.7067 82.3326 51.7067 89.3846V114.923C51.7067 141.395 59.0398 166.178 71.7682 187.337C32.481 202.478 4.67113 232.533 3.34879 233.98C-1.10564 238.852 -1.11751 246.334 3.32081 251.221C5.36875 253.476 54.1929 306.462 115.281 306.462C134.539 306.462 152.491 301.197 168.118 293.917C184.609 315.489 209.58 329.694 210.791 330.374C212.72 331.459 214.86 332 217 332C219.141 332 221.281 331.458 223.21 330.374C224.421 329.694 249.391 315.489 265.883 293.917C281.508 301.197 299.46 306.462 318.718 306.462C379.806 306.462 428.63 253.476 430.679 251.22C435.118 246.333 435.106 238.851 430.651 233.979ZM217.018 32.2576C230.717 49.4961 255.144 86.074 255.144 127.692C255.144 169.146 230.672 205.843 216.981 223.127C203.282 205.888 178.855 169.311 178.855 127.692C178.855 86.2383 203.327 49.5421 217.018 32.2576ZM115.281 280.923C78.9809 280.923 46.2656 256.184 31.0722 242.635C42.3054 232.647 63.0593 216.586 87.6371 208.811C111.577 235.513 145.546 252.972 183.524 255.146C163.674 269.671 139.828 280.923 115.281 280.923ZM77.1364 114.923V102.154H89.8512C112.831 102.154 134.713 108.877 153.566 121.624C153.475 123.633 153.425 125.656 153.425 127.692C153.425 170.484 174.173 207.623 190.096 229.827C127.674 229.031 77.1364 177.797 77.1364 114.923ZM217 304.183C210.195 299.639 199.132 291.446 190.601 281.284C201.767 273.925 210.789 266.329 216.999 260.591C223.209 266.329 232.23 273.925 243.396 281.284C234.866 291.447 223.8 299.642 217 304.183ZM280.574 127.692C280.574 125.656 280.524 123.633 280.433 121.624C299.287 108.877 321.168 102.154 344.148 102.154H356.863V114.923C356.863 177.797 306.325 229.031 243.903 229.827C259.826 207.623 280.574 170.484 280.574 127.692ZM318.718 280.923C292.076 280.923 267.597 267.582 250.558 255.141C288.504 252.947 322.439 235.494 346.363 208.811C370.959 216.592 391.724 232.671 402.948 242.653C387.804 256.206 355.184 280.923 318.718 280.923Z" fill="#D9A5B3" fill-opacity="0.41"/>
<path d="M63.7 266.5C56.9667 266.5 50.1667 264.533 43.3 260.6C39.1 262.533 35.1 263.5 31.3 263.5C27.6333 263.5 24.0333 262.7 20.5 261.1C16.2333 259.033 14.1 256.367 14.1 253.1C14.1 250.833 15 249 16.8 247.6C18.4667 246.333 20.4667 245.7 22.8 245.7C28.4 245.7 33.6 247.867 38.4 252.2C39.6 253.333 40.6667 254.3 41.6 255.1C42.5333 255.9 43.3333 256.567 44 257.1C47.2 254.5 50.3333 250.633 53.4 245.5C54.6667 243.3 55.9 241.1 57.1 238.9C58.3 236.7 59.5 234.5 60.7 232.3C54.8333 231.9 49.6667 230.467 45.2 228C39.4667 224.867 36.6 220.733 36.6 215.6C36.6 211.6 38 208.2 40.8 205.4C43.6 202.6 47 201.2 51 201.2C53.5333 201.2 55.7333 201.833 57.6 203.1C59.6667 204.633 60.7 206.6 60.7 209C60.7 209.933 60.4 210.4 59.8 210.4C59.5333 210.4 59.4 209.867 59.4 208.8C59.4 208.667 59.3667 208.467 59.3 208.2C59.2333 207.933 59.1333 207.6 59 207.2C57.8 203.8 55.1667 202.1 51.1 202.1C47.7667 202.1 44.8667 203.533 42.4 206.4C40 209.2 38.8 212.267 38.8 215.6C38.8 220.4 41.4667 224.267 46.8 227.2C51 229.533 55.8333 230.867 61.3 231.2C63.4333 227.467 65.6 224.067 67.8 221C70.0667 217.867 72.3333 215.033 74.6 212.5C81.4 205.033 87.5667 201.3 93.1 201.3C95.0333 201.3 96.6667 201.733 98 202.6C99.5333 203.6 100.3 205 100.3 206.8C100.3 209.4 98.7667 212.6 95.7 216.4C94.5667 217.8 93.3333 219.133 92 220.4C90.6667 221.667 89.2333 222.867 87.7 224C86.4333 225 85.1 225.9 83.7 226.7C82.3667 227.5 80.9667 228.267 79.5 229C76.3 230.533 72.6667 231.533 68.6 232C65.8 238.4 62.8667 243.533 59.8 247.4C56.1333 252.067 51.6667 255.9 46.4 258.9C52.6 263.3 58.5667 265.5 64.3 265.5C67.3667 265.5 70.0333 264.9 72.3 263.7C75.1 262.167 76.5 260 76.5 257.2C76.5 256.8 76.6333 256.6 76.9 256.6C77.1667 256.6 77.3 256.833 77.3 257.3V257.6C77.3 260.533 76.0667 262.733 73.6 264.2C71.2 265.733 67.9 266.5 63.7 266.5ZM69.2 230.7C70.8667 230.433 72.5 230.1 74.1 229.7C75.7 229.3 77.2667 228.8 78.8 228.2C80.1333 227.667 81.4333 227.033 82.7 226.3C83.9667 225.567 85.2333 224.733 86.5 223.8C89.3667 221.667 91.9667 219.133 94.3 216.2C97.3667 212.533 98.9 209.4 98.9 206.8C98.9 204.667 97.8 203.6 95.6 203.6C93.8 203.6 91.6667 204.233 89.2 205.5C85.2667 207.567 81.7333 210.5 78.6 214.3C75.4667 218.1 72.7 222.733 70.3 228.2L69.2 230.7ZM30.3 262.2C34.3 262.2 37.9 261.233 41.1 259.3C39.3667 258.167 37.6333 257.033 35.9 255.9C34.1667 254.767 32.4333 253.667 30.7 252.6C25.7667 249.533 22.1333 248 19.8 248C16.8 248 15.3 249.367 15.3 252.1C15.3 254.767 16.7667 257.1 19.7 259.1C22.1667 260.767 24.8333 261.767 27.7 262.1C28.1667 262.167 28.6 262.2 29 262.2C29.4667 262.2 29.9 262.2 30.3 262.2ZM91.9242 260.9C88.9909 260.9 86.7576 259.633 85.2242 257.1C83.8242 254.967 83.1242 252.367 83.1242 249.3C83.1242 244.033 84.7909 239.133 88.1242 234.6C91.7909 229.667 96.1909 227.2 101.324 227.2C103.924 227.2 105.924 228.1 107.324 229.9C108.658 231.633 109.324 233.833 109.324 236.5C109.324 237.7 109.191 238.933 108.924 240.2C108.724 241.467 108.391 242.8 107.924 244.2C106.924 247.133 105.691 249.433 104.224 251.1L104.424 251.4C105.091 251.867 105.891 252.1 106.824 252.1C108.758 252.1 110.391 251.467 111.724 250.2C113.058 248.933 114.558 246.667 116.224 243.4C116.291 243.133 116.424 243 116.624 243C116.758 243 116.858 243.1 116.924 243.3C116.991 243.433 116.958 243.633 116.824 243.9C115.424 246.833 113.924 249.067 112.324 250.6C110.791 252.133 108.991 252.9 106.924 252.9C105.591 252.9 104.558 252.533 103.824 251.8C103.158 253 102.424 254.133 101.624 255.2C100.824 256.2 99.9242 257.1 98.9242 257.9C96.6576 259.9 94.3242 260.9 91.9242 260.9ZM92.6242 260.1C96.1576 260.1 99.6242 257.4 103.024 252C103.024 251.8 103.124 251.6 103.324 251.4C102.124 249.4 101.524 247.5 101.524 245.7C101.524 245.633 101.524 245.5 101.524 245.3C101.524 245.033 101.558 244.7 101.624 244.3C101.691 243.567 101.824 242.833 102.024 242.1C102.224 241.3 102.558 240.567 103.024 239.9C104.024 238.3 105.224 237.5 106.624 237.5H107.524C107.791 237.567 107.991 237.6 108.124 237.6C108.258 237.6 108.358 237.6 108.424 237.6C108.424 231.6 106.524 228.6 102.724 228.6C99.5242 228.6 96.4909 230.533 93.6242 234.4C91.2909 237.467 89.6242 240.9 88.6242 244.7C88.0242 246.767 87.7242 248.933 87.7242 251.2C87.7242 257.133 89.3576 260.1 92.6242 260.1ZM120.448 260.3C115.715 260.3 113.348 257.967 113.348 253.3C113.348 249.633 114.715 245 117.448 239.4C117.582 239.133 118.215 237.967 119.348 235.9C120.548 233.767 122.248 230.733 124.448 226.8H119.248L119.048 226.6L119.148 226L119.248 225.9H124.948L132.148 213.3C132.748 213.567 133.448 213.7 134.248 213.7C135.182 213.7 136.182 213.367 137.248 212.7C138.382 212.1 139.148 211.433 139.548 210.7L139.848 210.8L130.848 225.9H137.748L137.848 226V226.6L137.648 226.8H130.348L123.548 238.8C119.482 245.933 117.448 251.433 117.448 255.3C117.448 258.033 118.515 259.4 120.648 259.4C123.982 259.4 127.348 257.533 130.748 253.8C131.682 252.8 132.782 251.3 134.048 249.3C135.315 247.3 136.382 245.4 137.248 243.6C137.382 243.267 137.548 243.167 137.748 243.3C138.015 243.367 138.082 243.567 137.948 243.9C136.948 245.9 135.882 247.8 134.748 249.6C133.682 251.4 132.448 253.067 131.048 254.6C127.582 258.4 124.048 260.3 120.448 260.3ZM139.142 260.6C137.476 260.6 136.142 260.033 135.142 258.9C134.209 257.767 133.742 256.4 133.742 254.8C133.742 253.333 134.176 251.4 135.042 249C135.976 246.6 137.276 243.733 138.942 240.4C139.676 238.933 140.609 237.167 141.742 235.1C142.942 232.967 144.376 230.533 146.042 227.8H146.242C146.709 228.133 147.242 228.3 147.842 228.3C149.242 228.3 150.842 227.6 152.642 226.2L152.842 226.4C151.842 227.533 150.109 230.3 147.642 234.7C146.842 236.1 146.076 237.4 145.342 238.6C144.676 239.8 144.009 240.933 143.342 242C139.409 248.733 137.442 253.667 137.442 256.8C137.442 258.6 138.276 259.5 139.942 259.5C143.676 259.5 148.842 253.667 155.442 242C156.376 240.333 157.476 238.267 158.742 235.8C160.009 233.333 161.476 230.467 163.142 227.2H163.342C163.809 227.4 164.242 227.567 164.642 227.7C165.042 227.833 165.442 227.9 165.842 227.9C167.309 227.9 168.342 227.233 168.942 225.9L169.242 226L161.442 241.1C156.842 249.9 154.542 255.467 154.542 257.8C154.542 259 155.109 259.6 156.242 259.6C157.042 259.6 158.009 259.267 159.142 258.6C160.342 257.933 161.576 256.9 162.842 255.5C164.442 253.633 165.809 251.867 166.942 250.2C168.142 248.467 169.509 246.133 171.042 243.2C171.242 242.867 171.442 242.7 171.642 242.7C172.042 242.7 172.042 243.033 171.642 243.7C170.442 245.967 169.142 248.233 167.742 250.5C166.409 252.7 164.776 254.767 162.842 256.7C160.309 259.233 158.076 260.5 156.142 260.5C154.409 260.5 153.076 260.067 152.142 259.2C151.276 258.333 150.842 256.933 150.842 255C150.842 253.4 151.176 251.633 151.842 249.7C147.376 256.967 143.142 260.6 139.142 260.6ZM177.036 261.2C170.303 261.2 166.936 258 166.936 251.6C166.936 249.8 167.236 247.867 167.836 245.8V245.9C168.169 244.7 168.803 243.533 169.736 242.4C170.869 241 171.903 240.3 172.836 240.3C172.836 240.3 172.936 240.3 173.136 240.3C173.336 240.3 173.669 240.367 174.136 240.5L175.236 238.8C176.169 237.4 177.003 236 177.736 234.6C178.536 233.133 179.369 231.7 180.236 230.3C182.703 226.033 184.569 223.733 185.836 223.4C186.236 223.267 186.536 223.2 186.736 223.2C187.736 223.2 188.236 223.567 188.236 224.3C188.236 225.167 187.503 225.7 186.036 225.9C184.703 226.1 183.869 226.267 183.536 226.4C183.003 226.8 182.736 227.667 182.736 229C182.736 230.4 183.636 232.767 185.436 236.1C187.236 239.367 188.136 242.267 188.136 244.8C188.136 245.467 188.069 246.1 187.936 246.7C187.869 247.3 187.769 247.933 187.636 248.6C185.836 256.133 181.069 259.9 173.336 259.9C174.869 260.233 176.269 260.4 177.536 260.4C179.869 260.4 182.136 260 184.336 259.2C186.536 258.333 188.569 257.167 190.436 255.7C192.369 254.167 194.136 252.333 195.736 250.2C197.403 248 198.836 245.667 200.036 243.2C200.236 242.8 200.436 242.6 200.636 242.6C201.036 242.6 201.069 242.933 200.736 243.6C199.669 245.6 198.536 247.5 197.336 249.3C196.203 251.033 194.969 252.6 193.636 254C192.036 255.6 189.869 257.2 187.136 258.8C184.403 260.4 181.036 261.2 177.036 261.2ZM172.636 259.1C176.036 259.1 178.836 256.533 181.036 251.4C182.836 247.4 183.736 243.367 183.736 239.3C183.736 238.767 183.636 238.067 183.436 237.2C183.303 236.267 183.069 235.167 182.736 233.9C182.469 232.7 182.269 231.667 182.136 230.8C182.003 229.867 181.969 229.067 182.036 228.4C180.769 230.933 179.503 233.233 178.236 235.3C176.969 237.367 175.769 239.233 174.636 240.9C174.969 241.433 175.136 241.967 175.136 242.5C175.136 243.433 174.769 244.467 174.036 245.6C173.569 246.267 172.769 246.9 171.636 247.5C170.503 248.1 169.703 248.667 169.236 249.2C168.503 250.267 168.136 251.667 168.136 253.4C168.136 257.2 169.636 259.1 172.636 259.1ZM220.919 262.8C215.785 262.8 213.219 261.367 213.219 258.5C213.219 255.3 215.352 253.7 219.619 253.7C221.619 253.7 226.385 254.867 233.919 257.2C235.719 255.667 237.485 253.8 239.219 251.6C241.019 249.333 242.719 246.667 244.319 243.6C245.652 241.067 246.919 238.5 248.119 235.9C249.319 233.233 250.552 230.6 251.819 228C257.485 216.333 263.985 208 271.319 203C269.252 202.4 266.885 201.933 264.219 201.6C261.619 201.267 258.752 201.1 255.619 201.1C252.152 201.1 248.885 201.4 245.819 202C242.752 202.533 239.852 203.367 237.119 204.5C230.652 207.1 225.852 211 222.719 216.2C220.785 219.467 219.819 222.7 219.819 225.9C219.819 229.3 220.885 232.133 223.019 234.4C225.152 236.733 227.919 237.9 231.319 237.9C235.119 237.9 238.485 236.533 241.419 233.8C244.352 231 245.819 227.733 245.819 224C245.819 221.4 245.119 219.267 243.719 217.6C242.252 215.867 240.219 215 237.619 215C235.685 215 233.952 215.6 232.419 216.8C230.885 218.133 230.119 219.8 230.119 221.8C230.119 223.4 230.985 224.2 232.719 224.2C232.852 224.2 232.952 224.1 233.019 223.9C233.219 223.7 233.385 223.6 233.519 223.6C233.652 223.667 233.719 223.767 233.719 223.9C233.719 224.567 233.352 224.9 232.619 224.9C230.352 224.9 229.219 223.833 229.219 221.7C229.219 219.567 230.185 217.7 232.119 216.1C233.985 214.567 235.985 213.8 238.119 213.8C240.985 213.8 243.319 214.733 245.119 216.6C246.985 218.467 247.919 220.833 247.919 223.7C247.919 228.1 246.185 231.8 242.719 234.8C239.452 237.6 235.585 239 231.119 239C226.919 239 223.485 237.767 220.819 235.3C217.952 232.633 216.519 229.333 216.519 225.4C216.519 222.6 217.219 219.867 218.619 217.2C221.685 211.133 227.085 206.6 234.819 203.6C241.152 201.133 248.352 199.9 256.419 199.9C262.752 199.9 268.319 200.567 273.119 201.9C275.252 200.7 277.285 199.8 279.219 199.2C281.152 198.533 283.052 198.2 284.919 198.2C285.452 198.2 285.719 198.267 285.719 198.4C285.719 198.6 285.619 198.7 285.419 198.7C285.152 198.7 284.785 198.733 284.319 198.8C283.919 198.8 283.452 198.833 282.919 198.9C279.985 199.167 277.119 200.3 274.319 202.3C281.319 204.567 284.819 208.4 284.819 213.8C284.819 214.4 284.752 215 284.619 215.6C284.552 216.133 284.452 216.667 284.319 217.2C283.519 220.6 280.319 223.367 274.719 225.5C270.719 226.9 266.219 227.8 261.219 228.2H264.319C276.119 228.2 282.019 232.233 282.019 240.3C282.019 244.9 280.252 248.967 276.719 252.5C273.652 255.567 269.719 257.867 264.919 259.4C262.985 260.067 260.952 260.533 258.819 260.8C256.685 261.133 254.485 261.3 252.219 261.3C249.485 261.3 246.652 261.067 243.719 260.6C240.852 260.133 237.919 259.4 234.919 258.4C229.585 261.333 224.919 262.8 220.919 262.8ZM256.819 227.9C270.952 226.567 278.652 222.967 279.919 217.1C280.185 215.833 280.319 214.567 280.319 213.3C280.319 208.633 277.819 205.367 272.819 203.5C267.019 208.367 261.685 216.5 256.819 227.9ZM248.619 259.9C255.485 259.9 261.585 258.267 266.919 255C273.385 251.2 276.619 246.167 276.619 239.9C276.619 232.367 271.119 228.6 260.119 228.6C259.452 228.6 258.819 228.633 258.219 228.7C257.619 228.7 257.052 228.733 256.519 228.8C253.252 236.467 250.652 241.9 248.719 245.1C245.385 250.433 241.119 254.667 235.919 257.8C240.519 259.2 244.752 259.9 248.619 259.9ZM221.619 262C225.619 262 229.452 260.633 233.119 257.9C230.252 256.9 227.719 256.167 225.519 255.7C223.385 255.233 221.652 255 220.319 255C216.252 255 214.219 256.2 214.219 258.6C214.219 260.867 216.685 262 221.619 262ZM298.73 260.8C293.33 260.8 290.63 257.233 290.63 250.1C290.63 245.833 291.563 240.867 293.43 235.2C294.296 232.6 295.23 230.1 296.23 227.7C297.23 225.3 298.296 223.067 299.43 221C300.83 218.467 302.296 216.067 303.83 213.8C305.363 211.467 306.996 209.267 308.73 207.2C313.73 201 317.996 197.9 321.53 197.9C322.996 197.9 323.73 198.6 323.73 200C323.73 201.867 322.963 204.733 321.43 208.6C316.296 221.333 307.963 232.933 296.43 243.4C295.296 247.6 294.73 250.967 294.73 253.5C294.73 257.833 296.096 260 298.83 260C299.763 260 300.663 259.833 301.53 259.5C302.396 259.1 303.163 258.667 303.83 258.2C305.63 256.8 307.163 255.167 308.43 253.3C309.696 251.433 310.796 249.567 311.73 247.7C312.663 245.833 313.496 244.267 314.23 243C314.43 242.667 314.63 242.567 314.83 242.7C315.03 242.767 315.063 242.967 314.93 243.3C313.596 246.1 312.13 248.967 310.53 251.9C308.93 254.833 306.896 257.167 304.43 258.9C302.63 260.167 300.73 260.8 298.73 260.8ZM296.73 242.4C298.063 241.267 299.463 239.867 300.93 238.2C302.396 236.533 303.963 234.633 305.63 232.5C307.296 230.367 308.996 228 310.73 225.4C312.463 222.8 314.196 220 315.93 217C320.596 209.067 322.93 203.533 322.93 200.4C322.93 199.267 322.563 198.7 321.83 198.7C319.363 198.7 314.963 204 308.63 214.6C306.963 217.6 305.463 220.5 304.13 223.3C302.53 226.833 301.096 230.2 299.83 233.4C298.63 236.533 297.596 239.533 296.73 242.4ZM322.002 260.9C319.069 260.9 316.836 259.633 315.302 257.1C313.902 254.967 313.202 252.367 313.202 249.3C313.202 244.033 314.869 239.133 318.202 234.6C321.869 229.667 326.269 227.2 331.402 227.2C334.002 227.2 336.002 228.1 337.402 229.9C338.736 231.633 339.402 233.833 339.402 236.5C339.402 237.7 339.269 238.933 339.002 240.2C338.802 241.467 338.469 242.8 338.002 244.2C337.002 247.133 335.769 249.433 334.302 251.1L334.502 251.4C335.169 251.867 335.969 252.1 336.902 252.1C338.836 252.1 340.469 251.467 341.802 250.2C343.136 248.933 344.636 246.667 346.302 243.4C346.369 243.133 346.502 243 346.702 243C346.836 243 346.936 243.1 347.002 243.3C347.069 243.433 347.036 243.633 346.902 243.9C345.502 246.833 344.002 249.067 342.402 250.6C340.869 252.133 339.069 252.9 337.002 252.9C335.669 252.9 334.636 252.533 333.902 251.8C333.236 253 332.502 254.133 331.702 255.2C330.902 256.2 330.002 257.1 329.002 257.9C326.736 259.9 324.402 260.9 322.002 260.9ZM322.702 260.1C326.236 260.1 329.702 257.4 333.102 252C333.102 251.8 333.202 251.6 333.402 251.4C332.202 249.4 331.602 247.5 331.602 245.7C331.602 245.633 331.602 245.5 331.602 245.3C331.602 245.033 331.636 244.7 331.702 244.3C331.769 243.567 331.902 242.833 332.102 242.1C332.302 241.3 332.636 240.567 333.102 239.9C334.102 238.3 335.302 237.5 336.702 237.5H337.602C337.869 237.567 338.069 237.6 338.202 237.6C338.336 237.6 338.436 237.6 338.502 237.6C338.502 231.6 336.602 228.6 332.802 228.6C329.602 228.6 326.569 230.533 323.702 234.4C321.369 237.467 319.702 240.9 318.702 244.7C318.102 246.767 317.802 248.933 317.802 251.2C317.802 257.133 319.436 260.1 322.702 260.1ZM354.327 260.9C351.393 260.9 349.16 259.633 347.627 257.1C346.227 254.967 345.527 252.367 345.527 249.3C345.527 244.033 347.193 239.133 350.527 234.6C354.193 229.667 358.593 227.2 363.727 227.2C366.327 227.2 368.327 228.1 369.727 229.9C371.06 231.633 371.727 233.833 371.727 236.5C371.727 237.7 371.593 238.933 371.327 240.2C371.127 241.467 370.793 242.8 370.327 244.2C369.327 247.133 368.093 249.433 366.627 251.1L366.827 251.4C367.493 251.867 368.293 252.1 369.227 252.1C371.16 252.1 372.793 251.467 374.127 250.2C375.46 248.933 376.96 246.667 378.627 243.4C378.693 243.133 378.827 243 379.027 243C379.16 243 379.26 243.1 379.327 243.3C379.393 243.433 379.36 243.633 379.227 243.9C377.827 246.833 376.327 249.067 374.727 250.6C373.193 252.133 371.393 252.9 369.327 252.9C367.993 252.9 366.96 252.533 366.227 251.8C365.56 253 364.827 254.133 364.027 255.2C363.227 256.2 362.327 257.1 361.327 257.9C359.06 259.9 356.727 260.9 354.327 260.9ZM355.027 260.1C358.56 260.1 362.027 257.4 365.427 252C365.427 251.8 365.527 251.6 365.727 251.4C364.527 249.4 363.927 247.5 363.927 245.7C363.927 245.633 363.927 245.5 363.927 245.3C363.927 245.033 363.96 244.7 364.027 244.3C364.093 243.567 364.227 242.833 364.427 242.1C364.627 241.3 364.96 240.567 365.427 239.9C366.427 238.3 367.627 237.5 369.027 237.5H369.927C370.193 237.567 370.393 237.6 370.527 237.6C370.66 237.6 370.76 237.6 370.827 237.6C370.827 231.6 368.927 228.6 365.127 228.6C361.927 228.6 358.893 230.533 356.027 234.4C353.693 237.467 352.027 240.9 351.027 244.7C350.427 246.767 350.127 248.933 350.127 251.2C350.127 257.133 351.76 260.1 355.027 260.1ZM368.951 262.4L368.751 262.2C370.684 258.867 372.551 255.433 374.351 251.9C376.151 248.367 377.984 244.733 379.851 241C380.584 239.533 381.451 237.7 382.451 235.5C383.517 233.3 384.717 230.733 386.051 227.8H386.251C386.717 228.133 387.251 228.3 387.851 228.3C389.251 228.3 390.784 227.667 392.451 226.4L392.651 226.2L392.551 226.4H392.451C391.984 227.333 391.117 228.967 389.851 231.3C388.651 233.567 387.084 236.567 385.151 240.3C390.617 231.633 395.184 227.3 398.851 227.3C401.317 227.3 402.551 228.467 402.551 230.8C402.551 232.733 401.717 235.567 400.051 239.3C401.451 237.367 402.617 235.8 403.551 234.6C404.484 233.333 405.184 232.467 405.651 232C408.451 229 410.951 227.5 413.151 227.5C416.017 227.5 417.451 228.9 417.451 231.7C417.451 233.767 416.917 235.867 415.851 238C414.851 240.067 413.651 242.167 412.251 244.3C410.851 246.367 409.584 248.433 408.451 250.5C407.917 251.567 407.417 252.7 406.951 253.9C406.551 255.033 406.351 256.067 406.351 257C406.351 257.867 406.617 258.6 407.151 259.2C407.684 259.733 408.584 260 409.851 260C410.784 260 411.684 259.833 412.551 259.5C413.417 259.1 414.184 258.667 414.851 258.2C416.651 256.8 418.184 255.167 419.451 253.3C420.717 251.433 421.817 249.567 422.751 247.7C423.684 245.833 424.517 244.267 425.251 243C425.451 242.667 425.651 242.567 425.851 242.7C426.051 242.767 426.084 242.967 425.951 243.3C424.617 246.1 423.151 248.967 421.551 251.9C419.951 254.833 417.917 257.167 415.451 258.9C414.584 259.5 413.617 260 412.551 260.4C411.551 260.8 410.484 261 409.351 261C407.017 261 405.317 260.5 404.251 259.5C403.251 258.433 402.751 257.067 402.751 255.4C402.751 254.2 403.017 252.733 403.551 251C403.951 249.8 404.451 248.533 405.051 247.2C405.717 245.8 406.551 244.3 407.551 242.7C411.084 236.833 412.851 233.033 412.851 231.3C412.851 230.167 412.351 229.6 411.351 229.6C408.551 229.6 404.484 233.967 399.151 242.7C397.484 245.367 395.884 248.167 394.351 251.1C392.817 253.967 391.284 256.967 389.751 260.1H389.551C389.084 259.967 388.651 259.867 388.251 259.8C387.851 259.733 387.484 259.7 387.151 259.7C385.151 259.7 383.951 260.4 383.551 261.8L383.251 261.6C385.784 257.2 387.784 253.7 389.251 251.1C390.717 248.5 391.684 246.8 392.151 246C396.417 237.867 398.551 232.667 398.551 230.4C398.551 229.4 398.184 228.9 397.451 228.9C394.717 228.9 390.617 233.367 385.151 242.3C381.551 248.1 378.317 254.067 375.451 260.2L375.251 260.3C374.384 259.967 373.617 259.8 372.951 259.8C371.817 259.8 370.884 260.233 370.151 261.1C369.484 261.967 369.084 262.4 368.951 262.4Z" fill="white"/>
<defs>
<clipPath id="clip0_1_265">
<rect width="72" height="80" fill="white" transform="translate(182 64)"/>
</clipPath>
</defs>
</svg>
