<svg width="49" height="49" viewBox="0 0 49 49" fill="none" xmlns="http://www.w3.org/2000/svg">
<g clip-path="url(#clip0_2023_411)">
<path d="M48.3286 16.421C48.0331 15.949 47.437 15.7646 46.9262 15.9865C43.8338 17.333 42.8294 19.2269 40.8281 23C40.0128 24.5372 38.998 26.4505 37.5776 28.8531C37.4435 29.0799 37.3022 29.3034 37.1573 29.5255C37.2196 27.5127 37.0524 25.4234 36.6517 23.2759C36.0769 20.195 35.5226 17.8518 35.0771 15.969C34.0536 11.6433 33.6706 10.0246 34.8783 7.45881C35.1154 6.95506 34.9483 6.35357 34.4851 6.04439C34.0221 5.73543 33.4023 5.81158 33.0281 6.22378C30.582 8.91766 30.4412 11.0918 30.1324 15.8557C30.1253 15.9656 30.118 16.0773 30.1107 16.1903C29.6466 14.6992 29.1785 13.2329 28.736 11.8474C27.3901 7.63235 26.2277 3.99215 25.8321 1.80585C25.7353 1.27061 25.2694 0.881348 24.7254 0.881348C24.1815 0.881348 23.7156 1.27061 23.6187 1.80585C23.2232 3.99226 22.0607 7.63258 20.7149 11.8476C20.1519 13.6109 19.5512 15.4924 18.9694 17.3908C18.9318 16.8471 18.8987 16.3363 18.8675 15.8557C18.5587 11.0919 18.4179 8.91766 15.9718 6.22378C15.5974 5.81169 14.978 5.73543 14.5148 6.04439C14.0516 6.35357 13.8845 6.95506 14.1216 7.45881C15.3293 10.0247 14.9463 11.6433 13.9228 15.969C13.4774 17.8518 12.923 20.195 12.3482 23.2759C11.9476 25.4234 11.7804 27.5129 11.8427 29.5255C11.6979 29.3035 11.5565 29.0799 11.4224 28.8531C10.002 26.4505 8.98731 24.5372 8.17191 23C6.17062 19.2268 5.16604 17.3329 2.07379 15.9865C1.56329 15.7643 0.966974 15.9489 0.671403 16.421C0.375945 16.8929 0.47042 17.5101 0.893419 17.8721C2.8468 19.5441 3.11301 20.9236 3.90322 25.0186C4.23996 26.7637 4.65902 28.9354 5.33924 31.7332C6.60318 36.9318 9.12857 41.2152 12.6424 44.1205C15.7606 46.6986 19.5888 48.1186 23.4219 48.1186C23.7815 48.1186 24.1432 48.1042 24.4999 48.079C24.8564 48.1041 25.2181 48.1185 25.5779 48.1186C25.5783 48.1186 25.5783 48.1186 25.5788 48.1186C29.4114 48.1186 33.2396 46.6986 36.3575 44.1206C39.8713 41.2153 42.3967 36.9319 43.6606 31.7332C44.3409 28.9354 44.7599 26.7636 45.0967 25.0186C45.8869 20.9236 46.1531 19.5441 48.1065 17.8721C48.5296 17.5101 48.6241 16.893 48.3286 16.421ZM32.4654 14.6723C32.5918 15.234 32.7341 15.8355 32.8882 16.487C33.3282 18.3465 33.8757 20.6605 34.4405 23.6884C35.0425 26.9152 35.0789 29.9854 34.5526 32.8208C33.2595 34.2311 31.8359 35.5687 30.4361 36.8818C28.9693 38.2579 27.5375 39.602 26.3477 40.9647C26.9251 38.5882 27.7814 36.4243 28.6655 34.1904C29.9556 30.931 31.2896 27.5605 31.7558 23.3764C31.7919 23.0521 31.8256 22.7371 31.8577 22.4278C31.8582 22.4246 31.8583 22.4215 31.8587 22.4184C32.1307 19.7998 32.2662 17.7127 32.3772 16.001C32.4078 15.5283 32.4364 15.0864 32.4654 14.6723ZM22.8577 12.5318C23.5536 10.3522 24.2013 8.32382 24.7254 6.54972C25.2497 8.32359 25.8973 10.352 26.5931 12.5314C27.5807 15.624 28.6966 19.1202 29.6015 22.3746C29.5755 22.6213 29.5487 22.871 29.5201 23.1272C29.0873 27.0124 27.8664 30.097 26.5739 33.3625C25.8366 35.2253 25.0876 37.1177 24.4998 39.17C23.9121 37.1178 23.163 35.2253 22.4258 33.3625C21.1796 30.2141 20.0023 27.2317 19.5314 23.5401C20.4885 19.9518 21.7469 16.0103 22.8577 12.5318ZM14.5595 23.6884C15.1243 20.6605 15.672 18.3465 16.1118 16.487C16.266 15.8355 16.4083 15.234 16.5346 14.6723C16.5635 15.0865 16.5922 15.5283 16.6228 16.0011C16.7469 17.9168 16.9015 20.3008 17.2441 23.3766C17.7103 27.5607 19.0443 30.9312 20.3344 34.1905C21.2185 36.4244 22.0748 38.5883 22.6522 40.9648C21.4624 39.6021 20.0306 38.258 18.5638 36.8819C17.164 35.5687 15.7403 34.2312 14.4473 32.8209C13.9211 29.9854 13.9575 26.9152 14.5595 23.6884ZM7.52498 31.2019C6.85747 28.4564 6.44403 26.3139 6.11191 24.5925C6.04026 24.2211 5.97177 23.8662 5.90463 23.5264C5.99505 23.6964 6.0884 23.8722 6.18468 24.0538C7.01088 25.6117 8.03908 27.5502 9.48589 29.9977C10.3338 31.432 11.3857 32.7762 12.5218 34.0424C12.5533 34.0819 12.5871 34.1192 12.6235 34.1539C14.0426 35.723 15.5858 37.1723 17.0247 38.5223C19.7435 41.0727 22.3329 43.5016 23.1487 45.8661C17.4937 45.745 10.1153 41.8554 7.52498 31.2019ZM42.8881 24.5926C42.5559 26.314 42.1425 28.4564 41.475 31.202C38.8845 41.8566 31.5064 45.7458 25.8512 45.8664C26.667 43.5019 29.2564 41.0729 31.9751 38.5225C33.4143 37.1724 34.9577 35.7228 36.377 34.1535C36.4131 34.119 36.4466 34.082 36.478 34.0429C37.6142 32.7767 38.6661 31.4323 39.5141 29.9979C40.9609 27.5504 41.9891 25.6119 42.8154 24.0541C42.9117 23.8724 43.0051 23.6965 43.0955 23.5266C43.0282 23.8664 42.9597 24.2212 42.8881 24.5926Z" fill="black" fill-opacity="0.5"/>
</g>
<defs>
<clipPath id="clip0_2023_411">
<rect width="48" height="48" fill="white" transform="translate(0.5 0.5)"/>
</clipPath>
</defs>
</svg>
