<svg width="48" height="51" viewBox="0 0 48 51" fill="none" xmlns="http://www.w3.org/2000/svg">
<path d="M46.8571 16.2429H45.6831C45.6608 15.8203 45.627 15.3965 45.5802 14.9745C45.511 14.3473 44.9463 13.8947 44.3187 13.9641C43.6914 14.0333 43.239 14.5982 43.3083 15.2255C43.3458 15.5641 43.3737 15.9039 43.3937 16.2428H41.1038C40.5136 7.32132 33.0685 0.24292 24 0.24292C14.9315 0.24292 7.4864 7.32132 6.89611 16.2429H4.60617C4.62617 15.9039 4.65417 15.5642 4.69154 15.2257C4.76091 14.5983 4.30846 14.0334 3.68114 13.9642C3.05349 13.8951 2.48903 14.3473 2.41966 14.9746C2.37303 15.3965 2.3392 15.8204 2.3168 16.243H1.14286C0.511657 16.243 0 16.7547 0 17.3859C0 18.0171 0.511657 18.5287 1.14286 18.5287H2.31577C2.86023 28.9776 10.8258 37.4934 21.0286 38.8958V48.4715H12.0736C11.4424 48.4715 10.9307 48.9833 10.9307 49.6143C10.9307 50.2454 11.4424 50.7572 12.0736 50.7572H35.4693C36.1005 50.7572 36.6121 50.2454 36.6121 49.6143C36.6121 48.9833 36.1005 48.4715 35.4693 48.4715H26.9714V38.8958C37.1742 37.4934 45.1398 28.9775 45.6842 18.5286H46.8571C47.4883 18.5286 48 18.017 48 17.3858C48 16.7546 47.4883 16.2429 46.8571 16.2429ZM24 2.52863C32.1922 2.52863 38.8571 9.19343 38.8571 17.3858C38.8571 25.5781 32.1922 32.2429 24 32.2429C15.8078 32.2429 9.14286 25.5781 9.14286 17.3858C9.14286 9.19343 15.8078 2.52863 24 2.52863ZM24.6857 48.4715H23.3143V39.0882C23.5421 39.0954 23.7705 39.1001 24 39.1001C24.2295 39.1001 24.4579 39.0953 24.6857 39.0882V48.4715ZM25.7137 36.7379C25.7127 36.738 25.7115 36.738 25.7104 36.7381C25.1466 36.7876 24.5765 36.8144 24 36.8144C23.4235 36.8144 22.8534 36.7876 22.2895 36.7381C22.2883 36.738 22.2873 36.738 22.2862 36.7379C12.7483 35.9002 5.1664 28.1422 4.60594 18.5286H6.89611C7.4864 27.4502 14.9315 34.5286 24 34.5286C33.0685 34.5286 40.5136 27.4502 41.1039 18.5286H43.3941C42.8335 28.1422 35.2517 35.9002 25.7137 36.7379Z" fill="black" fill-opacity="0.5"/>
<path d="M21.9308 17.2101C22.1538 17.4332 22.4464 17.5449 22.7389 17.5449C23.0313 17.5449 23.3239 17.4332 23.547 17.2101L31.685 9.07206C32.1313 8.62578 32.1313 7.90212 31.685 7.45572C31.2388 7.00955 30.5151 7.00955 30.0687 7.45572L21.9306 15.5938C21.4844 16.0402 21.4844 16.7638 21.9308 17.2101Z" fill="black" fill-opacity="0.5"/>
<path d="M18.6984 18.8264L14.0701 23.4545C13.6238 23.9008 13.6237 24.6244 14.07 25.0708C14.2932 25.2939 14.5857 25.4056 14.8781 25.4056C15.1706 25.4056 15.4632 25.2939 15.6862 25.0708L20.3145 20.4427C20.7608 19.9964 20.7609 19.2728 20.3145 18.8264C19.8683 18.3802 19.1448 18.3801 18.6984 18.8264Z" fill="black" fill-opacity="0.5"/>
<path d="M25.8614 5.19803C25.4151 4.75186 24.6915 4.75186 24.2451 5.19803L11.8123 17.6309C11.366 18.0772 11.366 18.8009 11.8123 19.2473C12.0355 19.4704 12.3279 19.582 12.6204 19.582C12.9128 19.582 13.2054 19.4704 13.4285 19.2473L25.8614 6.81437C26.3077 6.36809 26.3077 5.64443 25.8614 5.19803Z" fill="black" fill-opacity="0.5"/>
</svg>
