<svg width="49" height="49" viewBox="0 0 49 49" fill="none" xmlns="http://www.w3.org/2000/svg">
<g clip-path="url(#clip0_2023_405)">
<path d="M38.9558 1.55978C38.9558 0.974462 38.4812 0.5 37.896 0.5H11.1042C10.519 0.5 10.0444 0.974462 10.0444 1.55978V6.06838C10.0444 6.06902 10.0445 6.06955 10.0445 6.07018C10.0445 6.08036 10.0458 6.09064 10.0461 6.10081C10.047 6.12783 10.0478 6.15475 10.0507 6.18125C10.0508 6.18209 10.0508 6.18305 10.0509 6.1839L13.2019 34.9137V40.6919C13.2019 40.6954 13.2014 40.6987 13.2014 40.7022V45.4792C13.2014 47.1449 14.5565 48.4999 16.2222 48.4999H32.7783C34.444 48.4999 35.7991 47.1448 35.7991 45.4792V40.7022C35.7991 40.6987 35.7986 40.6954 35.7986 40.6919V34.9569L38.9496 6.18368C38.9497 6.18284 38.9496 6.18209 38.9497 6.18125C38.9526 6.15422 38.9535 6.12677 38.9544 6.09922C38.9547 6.08947 38.9559 6.07972 38.9559 6.06997C38.9559 6.06944 38.956 6.06891 38.956 6.06827V1.55978H38.9558ZM12.164 2.61955H36.8363V5.0086H12.164V2.61955ZM33.6788 39.6424H28.8849H20.1153H15.3214V35.9372H33.6789V39.6424H33.6788ZM21.175 41.7619H27.8251V42.7469H21.175V41.7619ZM33.6793 45.4792C33.6793 45.9761 33.2751 46.3803 32.7781 46.3803H16.2221C15.7252 46.3803 15.3208 45.976 15.3208 45.4792V41.7619H19.0555V42.9669C19.0555 44.0143 19.9077 44.8665 20.955 44.8665H28.0453C29.0926 44.8665 29.9447 44.0144 29.9447 42.9669V41.7619H33.6793V45.4792ZM33.7909 33.8177H15.2138L12.2866 7.12816H36.7138L33.7909 33.8177Z" fill="black" fill-opacity="0.5"/>
</g>
<defs>
<clipPath id="clip0_2023_405">
<rect width="48" height="48" fill="white" transform="translate(0.5 0.5)"/>
</clipPath>
</defs>
</svg>
