<svg width="35" height="36" viewBox="0 0 35 36" fill="none" xmlns="http://www.w3.org/2000/svg">
<path d="M2.665 3.165C0.25 5.603 0.25 9.5015 0.25 17.31V18.69C0.25 26.487 0.25 30.3855 2.665 32.835C5.103 35.25 9.0015 35.25 16.81 35.25H18.19C25.987 35.25 29.8855 35.25 32.335 32.835C34.75 30.397 34.75 26.4985 34.75 18.69V17.31C34.75 9.513 34.75 5.6145 32.335 3.165C29.897 0.75 25.9985 0.75 18.19 0.75H16.81C9.013 0.75 5.1145 0.75 2.665 3.165ZM6.069 11.2495H10.025C10.1515 17.8275 13.0495 20.6105 15.3495 21.1855V11.2495H19.064V16.919C21.3295 16.6775 23.7215 14.09 24.5265 11.238H28.2295C27.9273 12.7142 27.3241 14.1124 26.4575 15.3451C25.5908 16.5778 24.4794 17.6186 23.1925 18.4025C24.6289 19.1172 25.8974 20.1283 26.9144 21.3693C27.9313 22.6102 28.6735 24.0527 29.092 25.6015H25.0095C24.1355 22.876 21.9505 20.76 19.064 20.4725V25.6015H18.604C10.738 25.6015 6.253 20.2195 6.069 11.2495Z" fill="#0D99FF"/>
</svg>
